<svg width="80" height="80" viewBox="0 0 80 80" fill="none" xmlns="http://www.w3.org/2000/svg">
<path d="M40 40V0L4 20V60L40 40Z" fill="url(#paint0_linear_2405_49286)"/>
<path d="M40 40L76 60V20L40 0V40Z" fill="url(#paint1_linear_2405_49286)"/>
<path d="M76 60L40 80L4 60L40 40L76 60Z" fill="url(#paint2_linear_2405_49286)"/>
<path d="M40 40L76 20L40 0L4 20L40 40Z" fill="url(#paint3_linear_2405_49286)"/>
<path d="M40 40V80L76 60V20L40 40Z" fill="url(#paint4_linear_2405_49286)"/>
<path d="M40 80L4 60V20L40 40V80Z" fill="url(#paint5_linear_2405_49286)"/>
<path d="M40 40L76 20L40 0L4 20L40 40Z" fill="url(#paint6_radial_2405_49286)"/>
<path d="M40 40V80L76 60V20L40 40Z" fill="url(#paint7_radial_2405_49286)"/>
<path d="M40 80L4 60V20L40 40V80Z" fill="url(#paint8_radial_2405_49286)"/>
<defs>
<linearGradient id="paint0_linear_2405_49286" x1="12.9199" y1="7.2995" x2="28.9236" y2="47.3092" gradientUnits="userSpaceOnUse">
<stop stop-color="#9B6FF4"/>
<stop offset="1" stop-color="#5726BA"/>
</linearGradient>
<linearGradient id="paint1_linear_2405_49286" x1="58" y1="0.0684" x2="58" y2="60.0684" gradientUnits="userSpaceOnUse">
<stop stop-color="#2F6FF2"/>
<stop offset="1" stop-color="#2E469A"/>
</linearGradient>
<linearGradient id="paint2_linear_2405_49286" x1="51.6696" y1="45.413" x2="27.6639" y2="75.4201" gradientUnits="userSpaceOnUse">
<stop stop-color="#661175"/>
<stop offset="1" stop-color="#D975EB"/>
</linearGradient>
<linearGradient id="paint3_linear_2405_49286" x1="50.0299" y1="7.2347" x2="28.0245" y2="35.2414" gradientUnits="userSpaceOnUse">
<stop stop-color="#C454E0" stop-opacity="0.6"/>
<stop offset="1" stop-color="#D975EB"/>
</linearGradient>
<linearGradient id="paint4_linear_2405_49286" x1="39.3489" y1="39.2019" x2="77.3578" y2="61.2072" gradientUnits="userSpaceOnUse">
<stop stop-color="#9B6FF4"/>
<stop offset="1" stop-color="#7E5CDE" stop-opacity="0.65"/>
</linearGradient>
<linearGradient id="paint5_linear_2405_49286" x1="39.83" y1="39.7056" x2="4.17" y2="60.2944" gradientUnits="userSpaceOnUse">
<stop stop-color="#E42127" stop-opacity="0.65"/>
<stop offset="1" stop-color="#E42127"/>
</linearGradient>
<radialGradient id="paint6_radial_2405_49286" cx="0" cy="0" r="1" gradientUnits="userSpaceOnUse" gradientTransform="translate(45.9886 4.07419) rotate(108.435) scale(37.9564 55.3907)">
<stop offset="0.6307" stop-color="white" stop-opacity="0"/>
<stop offset="1" stop-color="white" stop-opacity="0.55"/>
</radialGradient>
<radialGradient id="paint7_radial_2405_49286" cx="0" cy="0" r="1" gradientUnits="userSpaceOnUse" gradientTransform="translate(40.0033 44.059) rotate(23.9625) scale(39.4048 79.6632)">
<stop stop-color="white" stop-opacity="0.34"/>
<stop offset="0.5573" stop-color="white" stop-opacity="0"/>
</radialGradient>
<radialGradient id="paint8_radial_2405_49286" cx="0" cy="0" r="1" gradientTransform="matrix(-2.0005 -26.0062 -44.1859 3.3989 30.0079 73.9224)" gradientUnits="userSpaceOnUse">
<stop stop-color="white" stop-opacity="0.24"/>
<stop offset="1" stop-color="white" stop-opacity="0"/>
</radialGradient>
</defs>
</svg>
