<svg width="40" height="40" viewBox="0 0 40 40" fill="none" xmlns="http://www.w3.org/2000/svg">
<path fill-rule="evenodd" clip-rule="evenodd" d="M0 0V40H40V0H0ZM8.625 20.375H5.375C5.5 21 6 21.5 6.625 21.5C7.125 21.5 7.5 21.25 7.875 21L8.625 21.75C8.125 22.25 7.375 22.625 6.625 22.625C5.125 22.625 4.125 21.625 4.125 20.125C4.125 18.75 5 17.625 6.5 17.625C7.875 17.625 8.75 18.75 8.75 20.125C8.75 20.125 8.75 20.25 8.625 20.375ZM14.25 22.5H12.875V20C12.875 19.5 12.75 19.25 12.625 19.125C12.375 18.875 12.125 18.75 11.875 18.75C11.375 18.75 11 19 10.75 19.375V22.5H9.5V17.75H10.75V18.125C11.125 17.75 11.625 17.625 12.125 17.625C12.75 17.625 13.375 17.875 13.75 18.375C14.125 18.75 14.25 19.25 14.25 20V22.5ZM17.875 18.75H16.25V21.25H17.5V22.5H16.25V21.25H15V16.375H16.25V17.75H17.875V18.75ZM19.875 19.625V22.5H18.625V17.75H19.875V18.25C20.125 17.875 20.625 17.625 21.25 17.625H21.625V18.875H21C20.5 18.875 20.125 19.125 19.875 19.625ZM26.5 22.5H25.375V22.125C25 22.5 24.5 22.625 24 22.625C23.25 22.625 22.625 22.375 22.125 21.75C21.75 21.25 21.5 20.625 21.5 20.125C21.5 18.75 22.5 17.625 23.875 17.625C24.375 17.625 24.875 17.75 25.25 18.125V17.75H26.5V22.5ZM30.25 22.5H29V21.25H30.25V22.5ZM30.5 18.75H28.875V21.25H27.625V16.375H28.875V17.75H30.5V18.75ZM35.75 22.5H34.625V22.125C34.25 22.5 33.75 22.625 33.25 22.625C32.5 22.625 31.875 22.375 31.375 21.75C31 21.25 30.75 20.625 30.75 20.125C30.75 18.75 31.75 17.625 33.125 17.625C33.625 17.625 34.125 17.75 34.5 18.125V17.75H35.75V22.5ZM6.5 18.625C6 18.625 5.5 19 5.5 19.5H7.5C7.375 19 6.875 18.625 6.5 18.625ZM23 20.125C23 20.875 23.5 21.375 24.25 21.375C24.75 21.375 25.125 21.125 25.375 20.75V19.25C25.125 19 24.625 18.75 24.25 18.75C23.5 18.75 23 19.375 23 20.125ZM33.375 18.75C32.625 18.75 32.125 19.375 32.125 20.125C32.125 20.875 32.625 21.375 33.375 21.375C33.875 21.375 34.25 21.125 34.5 20.75V19.25C34.375 19 33.875 18.75 33.375 18.75Z" fill="#383838"/>
</svg>
