<svg width="80" height="80" viewBox="0 0 80 80" fill="none" xmlns="http://www.w3.org/2000/svg">
<path d="M40 40V0L4 20V60L40 40Z" fill="url(#l3_g0)"/>
<path d="M40 40L76 60V20L40 0V40Z" fill="url(#l3_g1)"/>
<path d="M76 60L40 80L4 60L40 40L76 60Z" fill="url(#l3_g2)"/>
<path d="M40 40L76 20L40 0L4 20L40 40Z" fill="url(#l3_g3)"/>
<path d="M40 40V80L76 60V20L40 40Z" fill="url(#l3_g4)"/>
<path d="M40 80L4 60V20L40 40V80Z" fill="url(#l3_g5)"/>
<path d="M40 40L76 20L40 0L4 20L40 40Z" fill="url(#l3_r0)"/>
<path d="M40 40V80L76 60V20L40 40Z" fill="url(#l3_r1)"/>
<path d="M40 80L4 60V20L40 40V80Z" fill="url(#l3_r2)"/>
<defs>
<linearGradient id="l3_g0" x1="12.9" y1="7.3" x2="28.9" y2="47.3" gradientUnits="userSpaceOnUse">
<stop stop-color="#34D399"/><stop offset="1" stop-color="#059669"/>
</linearGradient>
<linearGradient id="l3_g1" x1="58" y1="0" x2="58" y2="60" gradientUnits="userSpaceOnUse">
<stop stop-color="#2DD4BF"/><stop offset="1" stop-color="#047857"/>
</linearGradient>
<linearGradient id="l3_g2" x1="51.7" y1="45.4" x2="27.7" y2="75.4" gradientUnits="userSpaceOnUse">
<stop stop-color="#064E3B"/><stop offset="1" stop-color="#6EE7B7"/>
</linearGradient>
<linearGradient id="l3_g3" x1="50" y1="7.2" x2="28" y2="35.2" gradientUnits="userSpaceOnUse">
<stop stop-color="#A7F3D0" stop-opacity="0.6"/><stop offset="1" stop-color="#34D399"/>
</linearGradient>
<linearGradient id="l3_g4" x1="39.3" y1="39.2" x2="77.4" y2="61.2" gradientUnits="userSpaceOnUse">
<stop stop-color="#10B981"/><stop offset="1" stop-color="#059669" stop-opacity="0.65"/>
</linearGradient>
<linearGradient id="l3_g5" x1="39.8" y1="39.7" x2="4.2" y2="60.3" gradientUnits="userSpaceOnUse">
<stop stop-color="#0D9488" stop-opacity="0.65"/><stop offset="1" stop-color="#0F766E"/>
</linearGradient>
<radialGradient id="l3_r0" cx="0" cy="0" r="1" gradientUnits="userSpaceOnUse" gradientTransform="translate(46 4) rotate(108) scale(38 55)">
<stop offset="0.63" stop-color="white" stop-opacity="0"/><stop offset="1" stop-color="white" stop-opacity="0.55"/>
</radialGradient>
<radialGradient id="l3_r1" cx="0" cy="0" r="1" gradientUnits="userSpaceOnUse" gradientTransform="translate(40 44) rotate(24) scale(39 80)">
<stop stop-color="white" stop-opacity="0.34"/><stop offset="0.56" stop-color="white" stop-opacity="0"/>
</radialGradient>
<radialGradient id="l3_r2" cx="0" cy="0" r="1" gradientTransform="matrix(-2 -26 -44 3.4 30 74)" gradientUnits="userSpaceOnUse">
<stop stop-color="white" stop-opacity="0.24"/><stop offset="1" stop-color="white" stop-opacity="0"/>
</radialGradient>
</defs>
</svg>
